<?xml version="1.0" standalone="no"?>
<!DOCTYPE svg PUBLIC "-//W3C//DTD SVG 20010904//EN"
 "http://www.w3.org/TR/2001/REC-SVG-20010904/DTD/svg10.dtd">
<svg version="1.0" xmlns="http://www.w3.org/2000/svg"
 width="600.000000pt" height="600.000000pt" viewBox="0 0 600.000000 600.000000"
 preserveAspectRatio="xMidYMid meet">
<metadata>
Created by potrace 1.11, written by Peter Selinger 2001-2013
</metadata>
<g transform="translate(0.000000,600.000000) scale(0.100000,-0.100000)"
fill="#000000" stroke="none">
<path d="M2650 5985 c-682 -83 -1291 -379 -1774 -861 -485 -485 -781 -1097
-861 -1784 -19 -163 -19 -517 0 -680 80 -684 366 -1280 848 -1769 490 -496
1101 -795 1797 -876 163 -19 517 -19 680 0 696 81 1307 380 1797 876 482 489
768 1085 848 1769 19 163 19 517 0 680 -81 696 -380 1307 -876 1797 -489 482
-1085 768 -1769 848 -153 18 -541 18 -690 0z m-142 -682 c111 -79 240 -208
302 -300 26 -39 50 -77 52 -83 2 -8 12 -7 33 4 17 9 45 16 63 16 l32 0 0 111
c0 71 4 108 10 104 6 -4 10 -53 10 -116 l0 -109 40 0 c22 0 49 -5 60 -12 10
-7 21 -10 23 -8 2 3 25 39 52 80 64 98 207 240 320 316 97 66 137 89 91 52
-141 -111 -185 -149 -248 -218 -68 -73 -146 -188 -162 -237 -6 -17 1 -30 32
-57 21 -20 54 -64 73 -98 l33 -63 9 -220 c5 -121 11 -222 13 -224 4 -5 407 91
417 99 4 3 -51 44 -123 89 -71 46 -128 86 -126 90 9 13 326 276 331 274 12 -7
-3 -21 -151 -145 l-156 -131 142 -92 143 -92 -199 -48 c-305 -72 -274 -61
-274 -100 0 -79 19 -133 175 -507 l29 -68 203 0 c112 0 203 -2 203 -5 0 -3
-36 -59 -80 -125 l-80 -120 386 -331 c212 -182 383 -333 380 -336 -3 -3 -13 0
-23 8 -34 27 -718 612 -741 634 l-24 22 71 107 c39 60 71 112 71 117 0 5 -77
9 -175 9 -96 0 -175 -4 -175 -8 0 -5 88 -213 196 -463 200 -462 227 -540 260
-734 19 -115 22 -346 5 -417 -29 -125 -91 -232 -152 -263 -23 -13 -37 -14 -69
-5 -128 34 -420 315 -541 519 l-36 60 -28 -97 c-15 -53 -49 -158 -76 -232 -61
-170 -89 -199 -164 -170 -33 13 -55 62 -130 290 -32 96 -61 184 -65 195 -6 18
-10 15 -28 -21 -83 -163 -369 -456 -507 -520 -75 -35 -103 -32 -152 19 -88 89
-126 213 -126 407 0 139 12 233 47 392 20 87 62 193 225 571 111 255 201 467
201 470 0 4 -79 7 -175 7 -98 0 -175 -4 -175 -9 0 -5 32 -57 71 -117 l71 -107
-24 -22 c-23 -22 -707 -607 -741 -634 -10 -8 -20 -11 -23 -8 -3 3 168 154 380
336 l386 331 -80 120 c-44 66 -80 122 -80 125 0 3 91 5 203 5 l202 0 38 93
c128 306 156 384 163 448 6 60 5 67 -12 72 -11 4 -116 29 -234 57 -118 28
-216 53 -218 55 -2 2 6 8 17 15 12 6 76 46 142 89 l121 78 -161 136 c-89 75
-157 138 -153 141 7 4 269 -208 325 -263 17 -17 12 -21 -113 -101 -81 -52
-126 -87 -118 -91 18 -9 408 -102 412 -98 2 2 8 103 12 224 9 212 10 222 37
277 15 31 49 78 75 103 l47 46 -33 62 c-67 131 -200 272 -368 392 -44 32 -81
59 -84 62 -14 16 91 -50 168 -104z m597 -3999 c303 -78 406 -460 184 -683 -62
-62 -135 -99 -223 -114 -273 -47 -516 196 -469 469 42 242 272 390 508 328z"/>
</g>
</svg>
