<svg id="Layer_1" data-name="Layer 1" xmlns="http://www.w3.org/2000/svg" viewBox="0 0 264.72664 99.75475"><defs><style>.cls-1{fill:#fff;}</style></defs><title>Artboard 1</title><path class="cls-1" d="M187.23128,35.86825l-2.23-.5a1.40639,1.40639,0,0,1-1.1-1.15c-.75-5.48-5.24-8.81994-13.43-10.06994a5.55988,5.55988,0,0,0-1.82.03c-13.69,2.54-20.12,12.48-21.66,27.4l-1.19,14.02a3.61907,3.61907,0,0,1-.37,1.73c-4.14,6.6-6.89.04-6.87-.21.02-.16.07-3.24.1-3.39.57-3.24,6.9-39.38,9.22-56.39a3.97508,3.97508,0,0,0-2.29-4.13c-3.95-1.78-6.97-2.39-8.93-1.65a2.75367,2.75367,0,0,0-1.69,2.4c-.59,7.31-1.93,15.06-3.35,23.31-6.07-3.79-12.32-3.36-18.69-.06-5.14,4.89-8.72,12.91-11.16,23.23a3.54576,3.54576,0,0,0-.09.79,42.44967,42.44967,0,0,1-3.59,16.99,3.601,3.601,0,0,1-.39.69c-3.21,4.47-5.72,4.15-7.58-.51-1.32-1.39.88-13.39,7.15-37.63a1.69322,1.69322,0,0,0-.72-1.83,14.9483,14.9483,0,0,0-10.43-2.16,2.07833,2.07833,0,0,0-1.61,1.21c-5.49,11.92-7.92,26.76-8.13,43.7a5.65385,5.65385,0,0,0,.37,2.07c1.23,3.23,3.18,5.55,6.15,6.6a4.29861,4.29861,0,0,0,1.47.22h7.9a4.567,4.567,0,0,0,1.42-.21c4.37-1.4,7.78-3.5,9.68-6.72,2.36,4.91,6.25,7.95,12.5,8.06,6.1-.47,10.46-3.61005,12.69-10,1.15,4.32,3.57,7.03,8.25,6.87,6.56.21,11.33-1.8,13.5-7,2.65,4.29,6.27,6.65,11.31,6.13a10.79356,10.79356,0,0,0,8.95-4.46.15594.15594,0,0,1,.28.12c-1.98,9.76-5.1,15.55-9.28,17.6a3.35337,3.35337,0,0,1-2.87.01,14.94742,14.94742,0,0,1-5.39-4.4,3.47784,3.47784,0,0,0-3.21-1.28c-4.19.62-5.82,3.1-5,7.38a3.43177,3.43177,0,0,0,1,1.87c3.92,3.68,9.23,5.53,16.27,5.16,12.47.2,20.7-12.92005,24-41.56l2.21-20.4A1.741,1.741,0,0,0,187.23128,35.86825Zm-60.24,2.35-1.53,3.52a2.57963,2.57963,0,0,0,.42,2.71l1.11,1.27q-3.75,16.35-10.41,24.67005a1.11328,1.11328,0,0,1-1.99-.6c-1.06-14.62,1.24-31.99,8.78-37.22a2.42014,2.42014,0,0,1,3.71,1.45A11.54887,11.54887,0,0,1,126.99129,38.21822Zm40.38,28.96a3.72115,3.72115,0,0,1-6.66-1.54c-2.45-12.6.97-26.05,10.53-33.25,2.27-.55,2.84,2.4,2.07,8.15a4.15955,4.15955,0,0,1-.28.99005c-1.2,2.92-1.03,4.88,1.46,5.28C173.47133,55.02828,169.91133,63.53823,167.37129,67.17825Z"></path><path class="cls-1" d="M74.15132,80.74825a3.07983,3.07983,0,0,1-2.38,3.39c-4.05.82-7.77-.29-11.19-3.08a4.07227,4.07227,0,0,1-1.47-2.6c-1.8-12.67005-2.35-31.86-2.26-54.5-5.42,12.14-10.03,29.56-14.18,49.95a3.32379,3.32379,0,0,1-3.41,2.66l-4.91-.24c-2.84-.42-4.97-1.75-5.94-4.57a263.51749,263.51749,0,0,1-.93-46.3c-5.49,9.55-11.77,34.55-13.17,42.3a2.59554,2.59554,0,0,0-.04.48,2.657,2.657,0,0,0,1.82,2.51,1.21777,1.21777,0,0,1,.83,1.38,28.85921,28.85921,0,0,1-3.92,10.09,4.84552,4.84552,0,0,1-4.8,2.17005,16.73655,16.73655,0,0,1-5.65-1.8,4.89019,4.89019,0,0,1-2.54-4.61005c2.87-42.69,22.02-66.06,28.33-72.67a5.26665,5.26665,0,0,1,4.99-1.51,21.06159,21.06159,0,0,1,4.95,1.78,4.20323,4.20323,0,0,1,2.32,3.68,11.8875,11.8875,0,0,1-1.49,5.81,4.90915,4.90915,0,0,0-.57,2.37c.09,9.85.01,20.52.81,31.39,6.79-21.27,13.38-38.92,19.45-47.09a3.587,3.587,0,0,1,2.13-1.37,11.1939,11.1939,0,0,1,7.89.77,3.69834,3.69834,0,0,1,1.91,3.29v14.57c0,.14-.01.27-.02.41C69.60133,36.05825,71.5013,57.77828,74.15132,80.74825Z"></path><path class="cls-1" d="M264.71132,44.88827c-.31-3.01-1.5-4.42-3.66-4.07a3.20592,3.20592,0,0,0-2.37,2,10.29828,10.29828,0,0,1-3.35,4.16,1.61243,1.61243,0,0,1-.54.27c-2.21.61-3.56-.11-3.95-2.33.06-3.89,1.91-9.24,4.34-15.05a3.44218,3.44218,0,0,0-.39-3.38c-1.7-2.24-4.96-2.75-9.53-1.82-.52-1.1-2.79,2.12-3.65,6.66-3.74,19.8-5.66,16.65-2.9-.56v-.15a4.3474,4.3474,0,0,0-2.58-4.12,7.66016,7.66016,0,0,0-7.48.66,2.34684,2.34684,0,0,0-.27.2c-2.72,2.41-3.74,12.28-3.79,26.33a3.143,3.143,0,0,1-3.06,3.11l-.32.01a1.89439,1.89439,0,0,0-1.84,1.59c-1.56,9.5-6.26,14.9-13.31,17.22a1.45668,1.45668,0,0,1-.3.07c-11.36.95-8.62-23.67-3.99-17.59,1.09,1.43005,3.39,1.65,5.8,1.73a1.55449,1.55449,0,0,0,.52-.07c6.11-1.83,10.09-5.87,11.33-12.76a35.12552,35.12552,0,0,0,.69-14.94,2.842,2.842,0,0,0-.07-.28c-1.94-5.57-6.05-8.51-12.17-9.02a2.88127,2.88127,0,0,0-.41.02c-25.56,2.5-26.27,67.8.56,62.06a1.46278,1.46278,0,0,1,.29-.02c6.68-1.01,11.78-3.74,15.01-8.51a1.47452,1.47452,0,0,1,1.99-.42,17.57448,17.57448,0,0,0,6.68,2.49,3.54718,3.54718,0,0,0,4.02-3.02c1.34-9.67,3.95-18.3,5.67-25.53.93-3.91,1.56-4.22,2.75-.12.99,3.41,5.77,5.2,9.52,5.55a.84184.84184,0,0,0,.27-.04c5.59-1.3,8.92-4.50994,10.39-9.29A2.60173,2.60173,0,0,0,264.71132,44.88827Zm-62.13,5.1c1.05-7.9,3.16-14.32,6.18-19.47a.77815.77815,0,0,1,1.45.34,32.30721,32.30721,0,0,1-4.01,19.99c-.89,1.55-1.93,1.49-3.05.6A1.58828,1.58828,0,0,1,202.58131,49.98824Z"></path><path class="cls-1" d="M87.34132,8.79824a11.12445,11.12445,0,0,1,.33-1.26c1.77-7.91,12.04-8.63995,12.85-6.50995,0,0,1.08,4.98,4.52,6.46a1.82486,1.82486,0,0,1,.76,1.97c-.67,5.02-4.22,8.31-9.94,10.28a2.69325,2.69325,0,0,1-.93.14C89.30128,19.61825,86.7513,15.94827,87.34132,8.79824Z"></path></svg>