<svg id="Layer_1" data-name="Layer 1" xmlns="http://www.w3.org/2000/svg" viewBox="0 0 261.632 416.073"><defs><style>.cls-1{fill:#fff;}</style></defs><title>Artboard 1</title><path class="cls-1" d="M111.346,266.059c-.08-1.45-.08-1.8.02-.6A3.108,3.108,0,0,1,111.346,266.059Zm38.94.45a3.21,3.21,0,0,1-.02-.61C150.366,264.689,150.366,265.049,150.286,266.509Z"/><path class="cls-1" d="M195.106,178.479l12.58-19.06h-29.66c14.33,33.56,32.93,76.27,32.93,76.27s19.99,61.77-7.42,80.77c-13.35,4.94-51.96-39.62-53.25-49.43-.32,5.07-6.79,23.66-12.14,38.31a7.6,7.6,0,0,1-14.26.05c-5.51-14.84-12.22-33.79-12.54-38.8-1.3,9.8-39.89,54.36-53.26,49.43-27.41-19.01-7.39-80.77-7.39-80.77s18.43-42.33,32.73-75.83H53.946l12.58,19.06-65.22,55.91L0,232.869l63.89-54.76-13.66-20.69h34.06c7.83-18.38,14.27-33.72,15.45-37.31.93-2.84,1.6-7.67,2.08-13.21l-40.07-9.6,24-15.46-26.58-22.3,1.29-1.53,28.65,24.04-22.34,14.39,35.22,8.44c.91-11.85,1.03-26.1.91-31.07a30.024,30.024,0,0,1,13.16-22.58c-7.95-19.47-27.62-36.98-54.45-51.23,41,19.39,52.53,38.88,58.33,49.15a10.5,10.5,0,0,1,9.46-2.24s.67-16.64,1.17-25.48a.127.127,0,0,0,0-.12c.08-1.33.17-2.49.23-3.36.06.83.14,1.99.24,3.34-.02.02-.02.04,0,.04.5,8.69,1.19,26.04,1.19,26.04a10.519,10.519,0,0,1,9.46,2.22c5.83-10.25,17.33-29.76,58.35-49.12-26.83,14.25-46.52,31.74-54.46,51.23a29.99,29.99,0,0,1,13.16,22.56c-.12,4.92-.01,18.9.88,30.67l35.25-8.44L172.526,82.1l28.65-24.05,1.29,1.54-26.58,22.3,24,15.45-40.11,9.61c.49,5.72,1.17,10.72,2.13,13.63,1.17,3.55,7.51,18.67,15.26,36.84h34.24l-13.66,20.69,63.89,54.76-1.3,1.52Z"/><circle class="cls-1" cx="130.816" cy="381.789" r="34.284"/></svg>